<?xml version="1.0" encoding="UTF-8"?>
<svg width="585px" height="173px" viewBox="0 0 585 173" version="1.1" xmlns="http://www.w3.org/2000/svg" xmlns:xlink="http://www.w3.org/1999/xlink">
    <!-- Generator: Sketch 44.1 (41455) - http://www.bohemiancoding.com/sketch -->
    <title>Artboard 2</title>
    <desc>Created with Sketch.</desc>
    <defs></defs>
    <g id="Page-1" stroke="none" stroke-width="1" fill="none" fill-rule="evenodd">
        <g id="Artboard-2" fill="#FFFFFF">
            <g id="Group-Copy" transform="translate(28.000000, 24.000000)">
                <path d="M16.6845691,91.1803114 C20.8513665,99.5264652 27.5503674,108.960836 38.0665705,108.960836 C47.4867452,108.960836 53.2881367,103.51975 53.2881367,94.6247558 C53.2881367,73.9486264 2.18109041,78.4718254 2.18109041,40.7248779 C2.18109041,16.5853785 18.6687583,0.792032967 42.7719336,0.792032967 C61.6217316,0.792032967 72.8560222,8.05943223 82.4651673,23.843315 L69.2372389,34.1955739 C63.9744131,25.1113248 58.5415139,16.7651709 46.7592091,16.7651709 C37.3390344,16.7651709 32.9927151,22.9348901 32.9927151,31.6500916 C32.9927151,52.1558913 85.1863412,46.3552198 85.1863412,85.5499695 C85.1863412,110.408639 66.695587,124.933974 42.7719336,124.933974 C23.3835699,124.933974 9.79659777,118.395208 0.196901152,101.333852 L16.6845691,91.1803114 Z" id="Fill-396"></path>
                <polygon id="Fill-398" points="171.833052 4.06614774 189.048256 4.06614774 154.976891 63.2273199 154.976891 121.669322 122.001556 121.669322 122.001556 65.4037546 86.6546412 4.06614774 123.267657 4.06614774 147.370833 47.0743895"></polygon>
                <path d="M270.391512,4.06614774 L287.965759,4.06614774 L261.868946,47.2447192 L303.73534,121.669322 L267.122324,121.669322 L234.506032,63.2273199 L270.391512,4.06614774 Z M200.264594,121.669322 L233.249378,121.669322 L233.249378,4.06614774 L200.264594,4.06614774 L200.264594,121.669322 Z" id="Fill-400"></path>
                <path d="M403.109207,4.06614774 L403.109207,85.7297619 C403.109207,106.245024 390.778888,124.933974 355.809914,124.933974 C326.08487,124.933974 309.228709,105.696184 309.228709,84.1021673 L309.228709,4.06614774 L342.213494,4.06614774 L342.213494,82.8246947 C342.213494,96.4416056 349.280987,105.875977 364.323031,105.875977 C379.365076,105.875977 385.705033,96.4416056 385.705033,82.8246947 L385.705033,4.06614774 L403.109207,4.06614774 Z" id="Fill-402"></path>
                <path d="M427.70843,121.666484 L427.70843,4.06330891 L486.780578,4.06330891 C506.348464,4.06330891 528.458001,17.3111722 528.458001,39.2742369 C528.458001,56.146337 516.496175,67.5868132 500.736043,71.3908425 L529.185538,121.666484 L491.854434,121.666484 L462.677403,61.7766789 L466.305635,61.7766789 C481.706723,61.7766789 494.396086,59.0514042 494.396086,39.8230769 C494.396086,26.5657509 485.145984,18.2195971 473.004636,18.2195971 L460.683765,18.2195971 L460.683765,121.666484 L427.70843,121.666484 Z" id="Fill-404"></path>
            </g>
        </g>
    </g>
</svg>